<svg width="274" height="274" viewBox="0 0 274 274" fill="none" xmlns="http://www.w3.org/2000/svg">
<mask id="mask0_294_6" style="mask-type:alpha" maskUnits="userSpaceOnUse" x="0" y="0" width="274" height="274">
<circle cx="137" cy="137" r="137" fill="white" fill-opacity="0.5"/>
</mask>
<g mask="url(#mask0_294_6)">
<circle cx="4.62097" cy="6.00476" r="6.00476" fill="white" fill-opacity="0.5"/>
<circle cx="4.62097" cy="43.2343" r="6.00476" fill="white" fill-opacity="0.5"/>
<circle cx="4.62097" cy="80.4637" r="6.00476" fill="white" fill-opacity="0.5"/>
<circle cx="4.62097" cy="117.693" r="6.00476" fill="white" fill-opacity="0.5"/>
<circle cx="4.62097" cy="154.923" r="6.00476" fill="white" fill-opacity="0.5"/>
<circle cx="4.62097" cy="192.152" r="6.00476" fill="white" fill-opacity="0.5"/>
<circle cx="4.62097" cy="229.382" r="6.00476" fill="white" fill-opacity="0.5"/>
<circle cx="4.62097" cy="266.611" r="6.00476" fill="white" fill-opacity="0.5"/>
<circle cx="38.2479" cy="6.00476" r="6.00476" fill="white" fill-opacity="0.5"/>
<circle cx="38.2479" cy="43.2343" r="6.00476" fill="white" fill-opacity="0.5"/>
<circle cx="38.2479" cy="80.4637" r="6.00476" fill="white" fill-opacity="0.5"/>
<circle cx="38.2479" cy="117.693" r="6.00476" fill="white" fill-opacity="0.5"/>
<circle cx="38.2479" cy="154.923" r="6.00476" fill="white" fill-opacity="0.5"/>
<circle cx="38.2479" cy="192.152" r="6.00476" fill="white" fill-opacity="0.5"/>
<circle cx="38.2479" cy="229.382" r="6.00476" fill="white" fill-opacity="0.5"/>
<circle cx="38.2479" cy="266.611" r="6.00476" fill="white" fill-opacity="0.5"/>
<circle cx="71.8739" cy="6.00476" r="6.00476" fill="white" fill-opacity="0.5"/>
<circle cx="71.8739" cy="43.2343" r="6.00476" fill="white" fill-opacity="0.5"/>
<circle cx="71.8739" cy="80.4637" r="6.00476" fill="white" fill-opacity="0.5"/>
<circle cx="71.8739" cy="117.693" r="6.00476" fill="white" fill-opacity="0.5"/>
<circle cx="71.8739" cy="154.923" r="6.00476" fill="white" fill-opacity="0.5"/>
<circle cx="71.8739" cy="192.152" r="6.00476" fill="white" fill-opacity="0.5"/>
<circle cx="71.8739" cy="229.382" r="6.00476" fill="white" fill-opacity="0.5"/>
<circle cx="71.8739" cy="266.611" r="6.00476" fill="white" fill-opacity="0.5"/>
<circle cx="105.501" cy="6.00476" r="6.00476" fill="white" fill-opacity="0.5"/>
<circle cx="105.501" cy="43.2343" r="6.00476" fill="white" fill-opacity="0.5"/>
<circle cx="105.501" cy="80.4637" r="6.00476" fill="white" fill-opacity="0.5"/>
<circle cx="105.501" cy="117.693" r="6.00476" fill="white" fill-opacity="0.5"/>
<circle cx="105.501" cy="154.923" r="6.00476" fill="white" fill-opacity="0.5"/>
<circle cx="105.501" cy="192.152" r="6.00476" fill="white" fill-opacity="0.5"/>
<circle cx="105.501" cy="229.382" r="6.00476" fill="white" fill-opacity="0.5"/>
<circle cx="105.501" cy="266.611" r="6.00476" fill="white" fill-opacity="0.5"/>
<circle cx="139.128" cy="6.00476" r="6.00476" fill="white" fill-opacity="0.5"/>
<circle cx="139.128" cy="43.2343" r="6.00476" fill="white" fill-opacity="0.5"/>
<circle cx="139.128" cy="80.4637" r="6.00476" fill="white" fill-opacity="0.5"/>
<circle cx="139.128" cy="117.693" r="6.00476" fill="white" fill-opacity="0.5"/>
<circle cx="139.128" cy="154.923" r="6.00476" fill="white" fill-opacity="0.5"/>
<circle cx="139.128" cy="192.152" r="6.00476" fill="white" fill-opacity="0.5"/>
<circle cx="139.128" cy="229.382" r="6.00476" fill="white" fill-opacity="0.5"/>
<circle cx="139.128" cy="266.611" r="6.00476" fill="white" fill-opacity="0.5"/>
<circle cx="172.755" cy="6.00476" r="6.00476" fill="white" fill-opacity="0.5"/>
<circle cx="172.755" cy="43.2343" r="6.00476" fill="white" fill-opacity="0.5"/>
<circle cx="172.755" cy="80.4637" r="6.00476" fill="white" fill-opacity="0.5"/>
<circle cx="172.755" cy="117.693" r="6.00476" fill="white" fill-opacity="0.5"/>
<circle cx="172.755" cy="154.923" r="6.00476" fill="white" fill-opacity="0.5"/>
<circle cx="172.755" cy="192.152" r="6.00476" fill="white" fill-opacity="0.5"/>
<circle cx="172.755" cy="229.382" r="6.00476" fill="white" fill-opacity="0.5"/>
<circle cx="172.755" cy="266.611" r="6.00476" fill="white" fill-opacity="0.5"/>
<circle cx="206.381" cy="6.00476" r="6.00476" fill="white" fill-opacity="0.5"/>
<circle cx="206.381" cy="43.2343" r="6.00476" fill="white" fill-opacity="0.5"/>
<circle cx="206.381" cy="80.4637" r="6.00476" fill="white" fill-opacity="0.5"/>
<circle cx="206.381" cy="117.693" r="6.00476" fill="white" fill-opacity="0.5"/>
<circle cx="206.381" cy="154.923" r="6.00476" fill="white" fill-opacity="0.5"/>
<circle cx="206.381" cy="192.152" r="6.00476" fill="white" fill-opacity="0.5"/>
<circle cx="206.381" cy="229.382" r="6.00476" fill="white" fill-opacity="0.5"/>
<circle cx="206.381" cy="266.611" r="6.00476" fill="white" fill-opacity="0.5"/>
<circle cx="240.008" cy="6.00476" r="6.00476" fill="white" fill-opacity="0.5"/>
<circle cx="240.008" cy="43.2343" r="6.00476" fill="white" fill-opacity="0.5"/>
<circle cx="240.008" cy="80.4637" r="6.00476" fill="white" fill-opacity="0.5"/>
<circle cx="240.008" cy="117.693" r="6.00476" fill="white" fill-opacity="0.5"/>
<circle cx="240.008" cy="154.923" r="6.00476" fill="white" fill-opacity="0.5"/>
<circle cx="240.008" cy="192.152" r="6.00476" fill="white" fill-opacity="0.5"/>
<circle cx="240.008" cy="229.382" r="6.00476" fill="white" fill-opacity="0.5"/>
<circle cx="240.008" cy="266.611" r="6.00476" fill="white" fill-opacity="0.5"/>
<circle cx="273.635" cy="6.00476" r="6.00476" fill="white" fill-opacity="0.5"/>
<circle cx="273.635" cy="43.2343" r="6.00476" fill="white" fill-opacity="0.5"/>
<circle cx="273.635" cy="80.4637" r="6.00476" fill="white" fill-opacity="0.5"/>
<circle cx="273.635" cy="117.693" r="6.00476" fill="white" fill-opacity="0.5"/>
<circle cx="273.635" cy="154.923" r="6.00476" fill="white" fill-opacity="0.5"/>
<circle cx="273.635" cy="192.152" r="6.00476" fill="white" fill-opacity="0.5"/>
<circle cx="273.635" cy="229.382" r="6.00476" fill="white" fill-opacity="0.5"/>
<circle cx="273.635" cy="266.611" r="6.00476" fill="white" fill-opacity="0.5"/>
</g>
</svg>
